<svg version="1.1" xmlns="http://www.w3.org/2000/svg" xmlns:xlink="http://www.w3.org/1999/xlink" x="0px" y="0px" viewBox="0 0 111 110.6" enable-background="new 0 0 111 110.6" xml:space="preserve">
	<g>
		<defs>
			<rect id="SVGID_1_" width="111" height="110.6"/>
		</defs>
		<clipPath id="SVGID_2_">
			<use xlink:href="#SVGID_1_"  overflow="visible"/>
		</clipPath>
		
		<path clip-path="url(#SVGID_2_)" fill="#DDBE3C" d="M110.8,60.1C99.9,77,79.2,88.4,55.5,88.4c-23.7,0-44.3-11.4-55.2-28.2c0.2,1.9,0.4,3.8,0.8,5.7c0.2,1,0.4,2,0.7,2.9c6.1,24,27.8,41.8,53.8,41.8c26,0,47.7-17.8,53.8-41.8c0.3-1.2,0.6-2.4,0.8-3.6L110.8,60.1z"/>
		<path clip-path="url(#SVGID_2_)" fill="#FFD835" d="M0,55.3c0,1.6,0.1,3.2,0.2,4.8C11.1,77,31.8,88.4,55.5,88.4c23.7,0,44.4-11.4,55.3-28.3c0.1-1.6,0.2-3.2,0.2-4.8c0-5.3-0.8-10.5-2.2-15.4l0-1.2c-0.1,0-0.2,0.1-0.4,0.1C101.4,16.3,80.4,0,55.5,0C30.7,0,9.6,16.3,2.6,38.7h0v0C0.9,43.9,0,49.5,0,55.3"/>
		<path clip-path="url(#SVGID_2_)" fill="#795523" d="M72.2,58.5H38.8c0,15,8.3,19.9,16.7,19.9S72.2,73.5,72.2,58.5"/>
		
		<path clip-path="url(#SVGID_2_)" fill="none" stroke="#795523" stroke-width="4.561" stroke-linecap="round" stroke-linejoin="round" d="M72.2,58.5H38.8c0,15,8.3,19.9,16.7,19.9S72.2,73.5,72.2,58.5z"/>
	
		<path clip-path="url(#SVGID_2_)" fill="none" stroke="#00BAFF" stroke-width="8.346" stroke-linecap="round" stroke-linejoin="round" d="M78.5,47.5c0-4.2-3.9-4.2-8.1-4.2"/>
	
		<polyline clip-path="url(#SVGID_2_)" fill="none" stroke="#795523" stroke-width="4.173" stroke-linecap="round" stroke-linejoin="round" points="74.3,34.9 65.9,43.3 78.5,43.3 	"/>
	
		<path clip-path="url(#SVGID_2_)" fill="none" stroke="#00BFF7" stroke-width="8.346" stroke-linecap="round" stroke-linejoin="round" d="M39,43.3c-4.2,0-8.6,0-8.6,4.2"/>
	
		<polyline clip-path="url(#SVGID_2_)" fill="none" stroke="#795523" stroke-width="4.173" stroke-linecap="round" stroke-linejoin="round" points="34.5,34.9 42.9,43.3 30.4,43.3 	"/>
	</g>
</svg>