<svg version="1.1" xmlns="http://www.w3.org/2000/svg" xmlns:xlink="http://www.w3.org/1999/xlink" x="0px" y="0px" viewBox="0 0 111 110.6" enable-background="new 0 0 111 110.6" xml:space="preserve">
	<g>
		<defs>
			<rect id="SVGID_1_" width="111" height="110.6"/>
		</defs>
		<clipPath id="SVGID_2_">
			<use xlink:href="#SVGID_1_"  overflow="visible"/>
		</clipPath>

		<path clip-path="url(#SVGID_2_)" fill="#DB3D35" d="M110.7,60.5C99.8,77.3,79,88.6,55.3,88.4C31.6,88.3,11,76.8,0.3,59.9c0.1,1.9,0.4,3.8,0.7,5.7c0.2,1,0.4,2,0.6,2.9c5.9,24,27.6,41.9,53.5,42.1c26,0.2,47.8-17.5,54.1-41.4c0.3-1.2,0.6-2.4,0.8-3.6L110.7,60.5z"/>
		<path clip-path="url(#SVGID_2_)" fill="#FF493B" d="M0,55c0,1.6,0.1,3.2,0.2,4.8c10.8,16.9,31.4,28.5,55.1,28.6c23.7,0.2,44.5-11.1,55.5-27.9c0.1-1.6,0.2-3.2,0.3-4.8c0-5.3-0.7-10.5-2.1-15.4l0-1.2c-0.1,0-0.2,0.1-0.4,0.1C101.7,16.6,80.7,0.2,55.9,0C31-0.2,9.9,16,2.7,38.4c0,0,0,0,0,0v0C1,43.6,0,49.2,0,55"/>
		
		<polyline clip-path="url(#SVGID_2_)" fill="none" stroke="#26211B" stroke-width="4.173" stroke-linecap="round" stroke-linejoin="round" points="74.4,35.1 66,43.4 78.5,43.4 	"/>
	
		<polyline clip-path="url(#SVGID_2_)" fill="none" stroke="#26211B" stroke-width="4.173" stroke-linecap="round" stroke-linejoin="round" points="34.7,34.8 42.9,43.2 30.4,43.1 	"/>
	
		<path clip-path="url(#SVGID_2_)" fill="none" stroke="#26211B" stroke-width="4.173" stroke-linecap="round" stroke-linejoin="round" d="M72.1,68.6c0.1-12.5-8.2-16.7-16.6-16.8c-8.3-0.1-16.7,4.1-16.8,16.6"/>
	</g>
</svg>